<svg xmlns="http://www.w3.org/2000/svg" width="13.32" height="13.33" viewBox="0 0 13.3210 13.3333" fill="none"><path transform="matrix(1.00000 0.00000 0.00000 1.00000 0.0000 0.0000)" d="M4 13.3333C3.63333 13.3333 3.31944 13.2028 3.05833 12.9417C2.79722 12.6806 2.66667 12.3667 2.66667 12C2.66667 11.6333 2.79722 11.3194 3.05833 11.0583C3.31944 10.7972 3.63333 10.6667 4 10.6667C4.36667 10.6667 4.68056 10.7972 4.94167 11.0583C5.20278 11.3194 5.33333 11.6333 5.33333 12C5.33333 12.3667 5.20278 12.6806 4.94167 12.9417C4.68056 13.2028 4.36667 13.3333 4 13.3333L4 13.3333M10.6667 13.3333C10.3 13.3333 9.98611 13.2028 9.725 12.9417C9.46389 12.6806 9.33333 12.3667 9.33333 12C9.33333 11.6333 9.46389 11.3194 9.725 11.0583C9.98611 10.7972 10.3 10.6667 10.6667 10.6667C11.0333 10.6667 11.3472 10.7972 11.6083 11.0583C11.8694 11.3194 12 11.6333 12 12C12 12.3667 11.8694 12.6806 11.6083 12.9417C11.3472 13.2028 11.0333 13.3333 10.6667 13.3333L10.6667 13.3333M3.43333 2.66667L5.03333 6L9.7 6L9.7 6L9.7 6L11.5333 2.66667L11.5333 2.66667L11.5333 2.66667L3.43333 2.66667L3.43333 2.66667M2.8 1.33333L12.6333 1.33333C12.8889 1.33333 13.0833 1.44722 13.2167 1.675C13.35 1.90278 13.3556 2.13333 13.2333 2.36667L10.8667 6.63333C10.7444 6.85556 10.5806 7.02778 10.375 7.15C10.1694 7.27222 9.94444 7.33333 9.7 7.33333L4.73333 7.33333L4 8.66667L4 8.66667L4 8.66667L12 8.66667L12 10L4 10C3.5 10 3.12222 9.78055 2.86667 9.34167C2.61111 8.90278 2.6 8.46667 2.83333 8.03333L3.73333 6.4L1.33333 1.33333L0 1.33333L0 0L2.16667 0L2.8 1.33333L2.8 1.33333M5.03333 6L5.03333 6L9.7 6L9.7 6L9.7 6L9.7 6L5.03333 6L5.03333 6" fill-rule="nonzero" fill="#ffffff" fill-opacity="1.0000"/></svg>
