<svg xmlns="http://www.w3.org/2000/svg" width="14" height="14" viewBox="0 0 14.0000 14.0000" fill="none"><path transform="matrix(1.00000 0.00000 0.00000 1.00000 5.2500 2.9160)" d="M0.412479 -0.412479C0.184673 -0.640285 -0.184673 -0.640285 -0.412479 -0.412479C-0.640285 -0.184673 -0.640285 0.184673 -0.412479 0.412479L0 0L0.412479 -0.412479ZM4.08333 4.08333L4.49581 4.49581C4.72362 4.26801 4.72362 3.89866 4.49581 3.67085L4.08333 4.08333ZM-0.412479 7.75419C-0.640285 7.98199 -0.640285 8.35134 -0.412479 8.57915C-0.184673 8.80695 0.184673 8.80695 0.412479 8.57915L0 8.16667L-0.412479 7.75419ZM0 0L-0.412479 0.412479L3.67085 4.49581L4.08333 4.08333L4.49581 3.67085L0.412479 -0.412479L0 0ZM4.08333 4.08333L3.67085 3.67085L-0.412479 7.75419L0 8.16667L0.412479 8.57915L4.49581 4.49581L4.08333 4.08333Z" fill-rule="nonzero" fill="#493ee5" fill-opacity="1.0000"/></svg>
