<svg xmlns="http://www.w3.org/2000/svg" width="13.69" height="13.69" viewBox="0 0 13.6875 13.6875" fill="none"><path transform="matrix(1.00000 0.00000 0.00000 1.00000 0.0000 0.0000)" d="M6.21875 13.6875L6.21875 12.4375C4.91667 12.2917 3.79948 11.7526 2.86719 10.8203C1.9349 9.88802 1.39583 8.77083 1.25 7.46875L0 7.46875L0 6.21875L1.25 6.21875C1.39583 4.91667 1.9349 3.79948 2.86719 2.86719C3.79948 1.9349 4.91667 1.39583 6.21875 1.25L6.21875 0L7.46875 0L7.46875 1.25C8.77083 1.39583 9.88802 1.9349 10.8203 2.86719C11.7526 3.79948 12.2917 4.91667 12.4375 6.21875L13.6875 6.21875L13.6875 7.46875L12.4375 7.46875C12.2917 8.77083 11.7526 9.88802 10.8203 10.8203C9.88802 11.7526 8.77083 12.2917 7.46875 12.4375L7.46875 13.6875L6.21875 13.6875L6.21875 13.6875M6.84375 11.2188C8.05208 11.2188 9.08333 10.7917 9.9375 9.9375C10.7917 9.08333 11.2188 8.05208 11.2188 6.84375C11.2188 5.63542 10.7917 4.60417 9.9375 3.75C9.08333 2.89583 8.05208 2.46875 6.84375 2.46875C5.63542 2.46875 4.60417 2.89583 3.75 3.75C2.89583 4.60417 2.46875 5.63542 2.46875 6.84375C2.46875 8.05208 2.89583 9.08333 3.75 9.9375C4.60417 10.7917 5.63542 11.2188 6.84375 11.2188L6.84375 11.2188M6.84375 9.34375C6.15625 9.34375 5.56771 9.09896 5.07812 8.60938C4.58854 8.11979 4.34375 7.53125 4.34375 6.84375C4.34375 6.15625 4.58854 5.56771 5.07812 5.07812C5.56771 4.58854 6.15625 4.34375 6.84375 4.34375C7.53125 4.34375 8.11979 4.58854 8.60938 5.07812C9.09896 5.56771 9.34375 6.15625 9.34375 6.84375C9.34375 7.53125 9.09896 8.11979 8.60938 8.60938C8.11979 9.09896 7.53125 9.34375 6.84375 9.34375L6.84375 9.34375" fill-rule="nonzero" fill="#00685a" fill-opacity="1.0000"/></svg>
